<svg width="40" height="40" viewBox="0 0 40 40" fill="none" xmlns="http://www.w3.org/2000/svg">
<path d="M34.8718 0H5.12821C2.29598 0 0 2.29598 0 5.12821V34.8718C0 37.704 2.29598 40 5.12821 40H34.8718C37.704 40 40 37.704 40 34.8718V5.12821C40 2.29598 37.704 0 34.8718 0Z" fill="black"/>
<path d="M29.1 10C27.15 10 25.46 11.82 25.2 12.6C20.65 10.65 10.9 12.21 10.9 19.1C10.9 21.44 10.9 23 13.5 24.95V29.5H18.7V26.9H22.6V29.5H27.8V24.3C29.1 23.65 30.01 23 30.4 21.7H33V16.5H30.4C30.4 15.2 29.75 14.55 29.1 13.9V10Z" stroke="white" stroke-linecap="round" stroke-linejoin="round"/>
<path d="M7 15.2V16.5C7 17.93 8.17 19.1 9.6 19.1H10.9" stroke="white" stroke-linecap="round" stroke-linejoin="round"/>
</svg>
